<svg xmlns="http://www.w3.org/2000/svg" viewBox="0 0 1200 900" role="img" aria-labelledby="title desc">
  <title id="title">Temporary forest map</title>
  <desc id="desc">A temporary hand-drawn style forest map for gameplay testing.</desc>
  <defs>
    <linearGradient id="sky" x1="0" x2="0" y1="0" y2="1">
      <stop offset="0" stop-color="#bfe9dd"/>
      <stop offset="1" stop-color="#dff5cf"/>
    </linearGradient>
    <linearGradient id="path" x1="0" x2="1">
      <stop offset="0" stop-color="#f3d6a3"/>
      <stop offset="1" stop-color="#d7b878"/>
    </linearGradient>
    <filter id="soft">
      <feDropShadow dx="0" dy="8" stdDeviation="7" flood-color="#31513f" flood-opacity=".22"/>
    </filter>
  </defs>
  <rect width="1200" height="900" fill="url(#sky)"/>
  <path d="M0 820 C180 720 280 740 420 650 C570 555 760 610 930 430 C1040 315 1110 260 1200 250 L1200 900 L0 900 Z" fill="#78b86b"/>
  <path d="M-20 660 C110 590 220 585 330 520 C480 430 520 370 650 330 C830 275 985 180 1220 110 L1220 900 L-20 900 Z" fill="#5fa45f" opacity=".78"/>
  <path d="M130 900 C160 760 250 690 385 635 C530 575 620 535 720 410 C830 275 900 185 960 0" fill="none" stroke="url(#path)" stroke-width="74" stroke-linecap="round" opacity=".9"/>
  <path d="M145 900 C185 770 260 720 405 660 C560 595 660 560 760 430 C850 310 910 205 970 0" fill="none" stroke="#fff0bb" stroke-width="22" stroke-linecap="round" opacity=".35"/>
  <g filter="url(#soft)">
    <g transform="translate(240 540)">
      <ellipse cx="0" cy="60" rx="88" ry="42" fill="#3c6d55"/>
      <path d="M-72 35 C-36 -55 40 -65 76 34 Z" fill="#4d5868"/>
      <path d="M-35 38 C-16 4 24 6 42 38 Z" fill="#23303a"/>
      <circle cx="-28" cy="20" r="7" fill="#ffd979"/>
    </g>
    <g transform="translate(575 585)">
      <rect x="-72" y="-18" width="144" height="86" rx="18" fill="#c88b55"/>
      <path d="M-90 -18 L0 -92 L92 -18 Z" fill="#7b5b42"/>
      <rect x="-18" y="18" width="36" height="50" rx="8" fill="#563d34"/>
      <circle cx="42" cy="20" r="13" fill="#ffe7a4"/>
    </g>
    <g transform="translate(760 320)">
      <rect x="-24" y="-18" width="48" height="150" rx="22" fill="#7a593c"/>
      <circle cx="0" cy="-54" r="96" fill="#2f8052"/>
      <circle cx="-52" cy="-8" r="62" fill="#4da765"/>
      <circle cx="58" cy="-8" r="66" fill="#3f985c"/>
      <circle cx="0" cy="-48" r="14" fill="#ffe7a4"/>
    </g>
    <g transform="translate(940 200)">
      <path d="M-118 96 L-14 -110 L108 96 Z" fill="#8e9ca5"/>
      <path d="M-14 -110 L30 -35 L-52 -30 Z" fill="#f4f7f2"/>
    </g>
    <g transform="translate(120 698)">
      <path d="M-70 58 C-30 -28 30 -28 70 58 Z" fill="#8c6a45"/>
      <rect x="-12" y="-8" width="24" height="75" fill="#6c4a2f"/>
      <path d="M-58 4 L0 -48 L58 4" fill="none" stroke="#f9e8b1" stroke-width="14" stroke-linecap="round" stroke-linejoin="round"/>
    </g>
  </g>
  <g opacity=".6">
    <circle cx="412" cy="470" r="8" fill="#fff5a8"/>
    <circle cx="690" cy="505" r="6" fill="#fff5a8"/>
    <circle cx="830" cy="370" r="7" fill="#fff5a8"/>
  </g>
</svg>
