<svg xmlns="http://www.w3.org/2000/svg" viewBox="0 0 1420 820" role="img" aria-label="Accessory shop scene">
  <rect width="1420" height="820" fill="#f2e6ff"/>
  <rect y="515" width="1420" height="305" fill="#d9c0f1"/>
  <rect x="130" y="130" width="1160" height="440" rx="20" fill="#fffaff" stroke="#b990d8" stroke-width="8"/>
  <rect x="210" y="260" width="1000" height="210" rx="18" fill="#fff5fb" stroke="#d7a64b" stroke-width="8"/>
  <path d="M350 360 L390 285 L430 360Z" fill="#d7a64b"/>
  <circle cx="390" cy="380" r="50" fill="none" stroke="#d7a64b" stroke-width="14"/>
  <path d="M600 330 C640 285 705 285 745 330 C700 380 645 380 600 330Z" fill="#c98dd6"/>
  <path d="M910 315 C845 395 860 485 960 490 C1055 485 1070 395 1005 315Z" fill="#5b6fa6"/>
  <circle cx="1090" cy="370" r="42" fill="#fff0f5" stroke="#d7a64b" stroke-width="12"/>
  <rect x="520" y="590" width="380" height="95" rx="16" fill="#fff5fb" stroke="#b990d8" stroke-width="8"/>
</svg>
