<svg xmlns="http://www.w3.org/2000/svg" viewBox="0 0 1420 820" role="img" aria-label="Dress boutique scene">
  <rect width="1420" height="820" fill="#ffe1ec"/>
  <rect y="500" width="1420" height="320" fill="#f7c9d9"/>
  <rect x="110" y="140" width="330" height="430" rx="20" fill="#fff9fb" stroke="#cf86a2" stroke-width="8"/>
  <rect x="525" y="110" width="370" height="485" rx="20" fill="#fff7fb" stroke="#cf86a2" stroke-width="8"/>
  <rect x="980" y="145" width="300" height="425" rx="20" fill="#fff9fb" stroke="#cf86a2" stroke-width="8"/>
  <path d="M185 320 H365" stroke="#d7a64b" stroke-width="12"/>
  <path d="M580 300 H840" stroke="#d7a64b" stroke-width="12"/>
  <path d="M1038 310 H1220" stroke="#d7a64b" stroke-width="12"/>
  <path d="M220 330 C185 420 165 495 175 570 H375 C385 495 360 420 325 330Z" fill="#f4a4c2"/>
  <path d="M645 315 C610 425 585 515 600 600 H815 C830 515 805 425 770 315Z" fill="#83b9dc"/>
  <path d="M1085 320 C1055 410 1035 500 1045 575 H1215 C1225 500 1205 410 1175 320Z" fill="#cf5d89"/>
  <rect x="0" y="650" width="1420" height="170" fill="#fff3f8"/>
</svg>
