<svg xmlns="http://www.w3.org/2000/svg" viewBox="0 0 1420 820" role="img" aria-label="Sunny farm scene">
  <rect width="1420" height="820" fill="#bfe7ff"/>
  <path d="M0 410 C300 325 590 390 850 315 C1050 255 1220 300 1420 260 L1420 820 L0 820Z" fill="#a9d783"/>
  <path d="M0 570 C300 505 710 530 1420 455 L1420 820 L0 820Z" fill="#e4c273"/>
  <rect x="180" y="300" width="310" height="220" fill="#f7dfbd" stroke="#9c6a44" stroke-width="8"/>
  <path d="M150 300 H520 L335 175Z" fill="#c65c52" stroke="#9c6a44" stroke-width="8"/>
  <rect x="285" y="395" width="78" height="125" fill="#7b4a38"/>
  <ellipse cx="955" cy="555" rx="180" ry="90" fill="#fff"/>
  <circle cx="830" cy="510" r="68" fill="#fff"/>
  <circle cx="813" cy="498" r="12" fill="#3f3330"/>
  <path d="M890 570 C940 620 1030 620 1085 570" fill="none" stroke="#3f3330" stroke-width="18" stroke-linecap="round"/>
  <circle cx="1015" cy="525" r="36" fill="#3f3330"/>
</svg>
