<svg xmlns="http://www.w3.org/2000/svg" viewBox="0 0 1420 820" role="img" aria-label="Market square scene">
  <rect width="1420" height="820" fill="#ffe7bd"/>
  <rect y="410" width="1420" height="410" fill="#d9ad72"/>
  <path d="M0 420 H1420" stroke="#fff3d6" stroke-width="22"/>
  <g>
    <rect x="90" y="220" width="260" height="245" rx="14" fill="#fff1d7" stroke="#b57655" stroke-width="8"/>
    <path d="M75 220 H365 L325 145 H115Z" fill="#d76e72"/>
    <rect x="150" y="310" width="70" height="155" fill="#8b5b45"/>
    <rect x="245" y="295" width="62" height="62" fill="#9bd2e8"/>
  </g>
  <g>
    <rect x="1040" y="215" width="255" height="250" rx="14" fill="#fff8ec" stroke="#b57655" stroke-width="8"/>
    <path d="M1020 215 H1315 L1270 130 H1065Z" fill="#86b3d1"/>
    <rect x="1118" y="318" width="80" height="147" fill="#8b5b45"/>
    <circle cx="1160" cy="285" r="42" fill="#ffd36b"/>
  </g>
  <rect x="430" y="455" width="560" height="95" rx="16" fill="#f5c26b" stroke="#96613f" stroke-width="8"/>
  <path d="M400 455 H1020 L965 350 H455Z" fill="#f08fae"/>
  <circle cx="540" cy="520" r="34" fill="#d84955"/>
  <circle cx="650" cy="520" r="34" fill="#f2d95e"/>
  <circle cx="760" cy="520" r="34" fill="#9ccc65"/>
  <circle cx="870" cy="520" r="34" fill="#d84955"/>
  <path d="M120 700 C420 640 915 640 1300 700" fill="none" stroke="#fff1cc" stroke-width="42" stroke-linecap="round"/>
</svg>
